<svg width="28" height="28" viewBox="0 0 28 28" fill="none" xmlns="http://www.w3.org/2000/svg">
<path d="M28 9.63203V10.8986C27.9798 10.9589 27.9642 11.0206 27.9533 11.0832C27.8646 11.8858 27.6676 12.6725 27.3677 13.4214C26.6573 15.2492 25.5511 16.8247 24.2653 18.2759C21.4382 21.4673 18.0846 24.0071 14.4864 26.2394C14.1601 26.4424 13.8366 26.4299 13.5088 26.2291C10.4648 24.3631 7.61063 22.2463 5.06607 19.7242C3.49479 18.1663 2.0805 16.482 1.08239 14.4821C-0.44143 11.4274 -0.388859 8.41106 1.44746 5.5131C2.72449 3.49408 4.57395 2.26429 6.97175 2.05172C9.51632 1.82518 11.5921 2.81446 13.2408 4.74815C13.5168 5.07178 13.7519 5.43146 14.0184 5.79186C14.0644 5.72714 14.1024 5.6683 14.1455 5.61313C14.4813 5.18064 14.7785 4.70843 15.1618 4.32302C17.177 2.29518 19.5829 1.5067 22.3516 2.30989C25.1568 3.12412 26.8369 5.12327 27.6634 7.8859C27.8313 8.45078 27.8905 9.0495 28 9.63203Z" fill="#D12525"/>
</svg>
