<svg width="32" height="32" viewBox="0 0 32 32" fill="none" xmlns="http://www.w3.org/2000/svg">
<rect width="32" height="32" rx="6" fill="#EC008C" fill-opacity="0.14"/>
<g clip-path="url(#clip0_17549_3080)">
<path d="M27.001 12.8702C26.4208 13.9847 25.8559 15.103 25.2529 16.2099C25.1334 16.4275 24.9332 16.5894 24.6955 16.6608C24.4577 16.7322 24.2015 16.7073 23.9819 16.5916C22.9386 16.0572 21.903 15.5089 20.875 14.9465C20.704 14.858 20.5654 14.7177 20.479 14.5456C20.3926 14.3735 20.3629 14.1785 20.3941 13.9885C20.41 13.7902 20.4867 13.6017 20.6137 13.4487C20.7408 13.2957 20.912 13.1856 21.104 13.1336C21.3025 13.0687 21.4857 13.0229 21.7529 12.9542C21.543 12.6336 21.3712 12.3244 21.1574 12.0458C20.2443 10.8054 18.9128 9.93768 17.4094 9.60303C17.3407 9.58395 17.2681 9.57249 17.1994 9.54959C17.1175 9.52954 17.0403 9.49355 16.9722 9.44366C16.9042 9.39378 16.8467 9.33098 16.8029 9.25886C16.7591 9.18673 16.73 9.1067 16.7171 9.02331C16.7043 8.93993 16.708 8.85483 16.7281 8.77288C16.7481 8.69093 16.7841 8.61373 16.834 8.54569C16.8839 8.47765 16.9467 8.4201 17.0188 8.37633C17.0909 8.33256 17.171 8.30341 17.2543 8.29058C17.3377 8.27774 17.4228 8.28145 17.5048 8.3015C19.1233 8.62039 20.5957 9.45298 21.7033 10.6755C22.3431 11.3722 22.8467 12.1826 23.188 13.0649C23.2381 13.1569 23.2655 13.2595 23.2679 13.3643C23.2702 13.469 23.2474 13.5728 23.2015 13.6669C23.1555 13.7611 23.0877 13.8429 23.0037 13.9055C22.9197 13.968 22.8219 14.0096 22.7185 14.0267L22.1689 14.1832L24.2719 15.2939L25.417 13.1488L24.9246 13.2901C24.8385 13.3272 24.7454 13.3454 24.6516 13.3433C24.5578 13.3413 24.4656 13.319 24.3812 13.2781C24.2968 13.2371 24.2222 13.1785 24.1625 13.1061C24.1028 13.0338 24.0594 12.9494 24.0353 12.8588C23.5512 11.58 22.7656 10.4369 21.7452 9.52669C20.6683 8.55179 19.3621 7.86533 17.9483 7.53128C16.5346 7.19723 15.0593 7.22644 13.6598 7.61621C12.2604 8.00597 10.9824 8.7436 9.9449 9.76038C8.90738 10.7772 8.1441 12.04 7.72616 13.4313C7.63837 13.7252 7.50478 13.9656 7.17654 14.0229C7.06311 14.0446 6.94592 14.0355 6.83722 13.9964C6.72852 13.9574 6.6323 13.8899 6.55859 13.801C6.48489 13.7121 6.43641 13.605 6.41821 13.491C6.40002 13.3769 6.41278 13.2601 6.45516 13.1526C6.70091 12.2718 7.07516 11.432 7.56585 10.6603C8.50593 9.15296 9.8344 7.92645 11.4118 7.10946C12.9893 6.29248 14.7575 5.91514 16.5311 6.01703C18.3046 6.11892 20.018 6.69629 21.4915 7.68855C22.965 8.68082 24.1443 10.0514 24.9055 11.6565C25.0048 11.8664 25.0926 11.9046 25.2872 11.8359C25.5202 11.7459 25.7666 11.6956 26.0162 11.687C26.2395 11.6979 26.453 11.7813 26.6246 11.9245C26.7961 12.0678 26.9162 12.2632 26.9666 12.4809L27.001 12.8702Z" fill="#EC008C"/>
<path d="M4.99991 18.8854C5.58007 17.7709 6.14495 16.6526 6.748 15.5457C6.86821 15.3289 7.06841 15.1676 7.30586 15.0963C7.5433 15.025 7.79922 15.0493 8.019 15.164C9.05971 15.6984 10.0953 16.2467 11.1259 16.8091C11.2934 16.8965 11.4297 17.0338 11.5158 17.202C11.602 17.3702 11.6338 17.561 11.6068 17.748C11.5956 17.9384 11.5274 18.1211 11.411 18.2722C11.2946 18.4233 11.1354 18.5359 10.9541 18.5953C10.7404 18.6755 10.519 18.7251 10.2518 18.8053C10.4579 19.1182 10.6335 19.4274 10.8434 19.7098C11.7627 20.9543 13.1029 21.8224 14.6144 22.1526C15.0381 22.248 15.2518 22.4503 15.2709 22.7747C15.2791 22.8768 15.2628 22.9793 15.2232 23.0738C15.1837 23.1682 15.1221 23.2518 15.0436 23.3176C14.9652 23.3834 14.8721 23.4294 14.7722 23.4518C14.6723 23.4742 14.5684 23.4724 14.4694 23.4465C12.8496 23.1216 11.3775 22.2839 10.2709 21.0572C9.64289 20.3688 9.14732 19.5704 8.80908 18.7022C8.75569 18.6075 8.72635 18.5012 8.72364 18.3925C8.72093 18.2839 8.74494 18.1762 8.79355 18.079C8.84216 17.9818 8.91388 17.898 9.00243 17.8349C9.09099 17.7719 9.19366 17.7316 9.30144 17.7175L9.82435 17.5686L7.72129 16.4541L6.57625 18.603L7.06862 18.4617C7.15467 18.4239 7.24791 18.4052 7.34189 18.407C7.43588 18.4087 7.52836 18.4309 7.61294 18.4719C7.69752 18.5129 7.77217 18.5718 7.83174 18.6445C7.8913 18.7173 7.93436 18.802 7.95793 18.893C8.2743 19.7615 8.74066 20.5676 9.33579 21.2747C11.5114 23.8053 14.2709 24.9121 17.5572 24.2976C20.9236 23.6679 23.1488 21.6259 24.2442 18.3625C24.2442 18.3282 24.2633 18.2938 24.2747 18.2595C24.2903 18.1679 24.3253 18.0807 24.3773 18.0037C24.4293 17.9267 24.4971 17.8617 24.5762 17.813C24.6553 17.7644 24.7439 17.7332 24.8361 17.7215C24.9283 17.7098 25.0219 17.718 25.1106 17.7454C25.1994 17.7727 25.2813 17.8188 25.3508 17.8804C25.4204 17.9419 25.476 18.0177 25.5139 18.1025C25.5518 18.1873 25.5712 18.2792 25.5708 18.3721C25.5704 18.465 25.5501 18.5567 25.5114 18.6411C25.2739 19.4812 24.9179 20.2832 24.4541 21.0228C23.7043 22.2703 22.684 23.3335 21.4685 24.1341C20.2531 24.9348 18.8734 25.4524 17.4312 25.6488C15.3303 25.9594 13.1852 25.5833 11.3153 24.5765C9.44538 23.5697 7.95056 21.9859 7.05335 20.061C6.9732 19.8892 6.89686 19.8511 6.71747 19.9083C6.48481 20.0017 6.23868 20.0571 5.98846 20.0724C5.75742 20.0705 5.53378 19.9907 5.3537 19.846C5.17362 19.7012 5.04762 19.5 4.99609 19.2747L4.99991 18.8854Z" fill="#EC008C"/>
<path d="M16.7166 23.6068C16.5439 23.6166 16.3737 23.5618 16.239 23.4532C16.1043 23.3446 16.0147 23.1899 15.9876 23.0191C15.9747 22.9338 15.9793 22.8468 16.0011 22.7634C16.0228 22.68 16.0612 22.6018 16.114 22.5337C16.1668 22.4655 16.2329 22.4088 16.3083 22.3669C16.3836 22.325 16.4667 22.2989 16.5525 22.29C16.9876 22.2099 17.4227 22.1336 17.8578 22.0458C18.0221 22.0053 18.1957 22.0295 18.3427 22.1133C18.4898 22.1971 18.599 22.3341 18.6479 22.4962C18.671 22.5774 18.6778 22.6623 18.6679 22.7462C18.6579 22.83 18.6314 22.9111 18.5898 22.9846C18.5483 23.0581 18.4925 23.1226 18.4258 23.1744C18.3591 23.2262 18.2828 23.2642 18.2013 23.2862C17.709 23.4122 17.2128 23.5 16.7166 23.6068Z" fill="#EC008C"/>
<path d="M13.3327 9.10692C13.3261 8.9623 13.3701 8.81989 13.4572 8.70424C13.5443 8.58859 13.669 8.50693 13.8098 8.47333C14.2983 8.36646 14.7869 8.27103 15.2831 8.20233C15.3676 8.18655 15.4545 8.18869 15.5381 8.2086C15.6218 8.2285 15.7003 8.26574 15.7686 8.3179C15.837 8.37006 15.8936 8.43598 15.9349 8.51141C15.9762 8.58683 16.0012 8.67008 16.0083 8.75577C16.0189 8.84115 16.0123 8.92779 15.9889 9.01059C15.9655 9.09339 15.9258 9.17067 15.8721 9.23789C15.8184 9.30511 15.7518 9.36091 15.6762 9.402C15.6006 9.44308 15.5175 9.46863 15.4319 9.47714L14.1075 9.72524C14.0148 9.74429 13.9191 9.74273 13.8272 9.72067C13.7352 9.69861 13.6492 9.65659 13.5752 9.59759C13.5013 9.53859 13.4412 9.46404 13.3993 9.37925C13.3574 9.29445 13.3347 9.20149 13.3327 9.10692Z" fill="#EC008C"/>
<path d="M12.8153 9.92362C12.8687 10.3435 11.9947 10.9542 11.5748 10.7213C11.4827 10.6747 11.4029 10.607 11.3418 10.5237C11.2808 10.4404 11.2403 10.3439 11.2235 10.242C11.2068 10.1401 11.2143 10.0357 11.2455 9.93729C11.2767 9.83886 11.3307 9.74918 11.4031 9.67553C11.5495 9.54142 11.7139 9.42837 11.8916 9.33965C11.9901 9.29248 12.099 9.27108 12.208 9.27747C12.317 9.28386 12.4226 9.31783 12.5149 9.37619C12.6072 9.43455 12.6832 9.51539 12.7357 9.61114C12.7883 9.70689 12.8156 9.81441 12.8153 9.92362Z" fill="#EC008C"/>
<path d="M20.7834 21.626C20.8636 22.0688 19.9857 22.6337 19.6041 22.4505C19.5051 22.4103 19.4176 22.3464 19.3493 22.2643C19.281 22.1822 19.2341 22.0846 19.2125 21.98C19.191 21.8754 19.1956 21.7672 19.226 21.6648C19.2563 21.5624 19.3115 21.4692 19.3865 21.3932C19.5313 21.257 19.6961 21.1438 19.875 21.0573C19.9715 21.0109 20.0781 20.9897 20.1849 20.9956C20.2918 21.0015 20.3954 21.0344 20.4861 21.0912C20.5768 21.148 20.6516 21.2268 20.7036 21.3203C20.7556 21.4138 20.7831 21.519 20.7834 21.626Z" fill="#EC008C"/>
</g>
<defs>
<clipPath id="clip0_17549_3080">
<rect width="22" height="19.7557" fill="white" transform="translate(5 6)"/>
</clipPath>
</defs>
</svg>
