<svg width="40" height="40" viewBox="0 0 40 40" fill="none" xmlns="http://www.w3.org/2000/svg">
<path d="M19.4318 34.8685H10.8575C8.50982 34.8685 6.2582 33.9559 4.59735 32.3314C2.93651 30.7069 2.0023 28.5032 2 26.2046V12.6638C2.0023 10.3653 2.93651 8.16161 4.59735 6.53706C6.2582 4.91252 8.50982 4 10.8575 4H27.994C29.1572 4 30.309 4.22432 31.3836 4.66014C32.4583 5.09597 33.4347 5.73477 34.2572 6.54007C35.0797 7.34537 35.7321 8.30141 36.1772 9.35358C36.6224 10.4058 36.8515 11.5335 36.8515 12.6723V19.7684" stroke="white" stroke-width="3" stroke-miterlimit="10" stroke-linecap="round"/>
<path d="M37.133 23.542H26.3635C24.9379 23.542 23.7822 24.6356 23.7822 25.9846V34.0443C23.7822 35.3933 24.9379 36.4868 26.3635 36.4868H37.133C38.5586 36.4868 39.7143 35.3933 39.7143 34.0443V25.9846C39.7143 24.6356 38.5586 23.542 37.133 23.542Z" fill="white"/>
<path d="M11.224 14.8669C11.224 15.5861 11.2363 16.3053 11.224 17.0245C11.2037 18.0188 10.7166 18.6382 9.70587 18.7319C8.77662 18.8175 8.03079 18.1207 8.00837 17.0795C7.96354 14.9538 7.96354 12.8281 8.00837 10.7023C8.02875 9.65916 8.65638 9.03163 9.69771 9.01125C11.8252 8.96779 13.952 8.96779 16.0782 9.01125C17.1297 9.03367 17.8164 9.77937 17.7308 10.7064C17.6391 11.7251 17.0196 12.206 16.0252 12.2263C15.3058 12.2406 14.5865 12.2263 13.8671 12.2263L13.6328 12.589C14.884 13.7626 16.1393 14.93 17.3824 16.1117C18.0528 16.7515 18.7171 17.4014 19.3529 18.0758C20.0804 18.848 20.1069 19.8178 19.465 20.4617C18.8231 21.1055 17.8348 21.0953 17.0808 20.3496C15.2101 18.5159 13.3719 16.6354 11.5195 14.7752L11.224 14.8669Z" fill="white"/>
</svg>
